<svg width="24" height="24" viewBox="0 0 24 24" fill="none" xmlns="http://www.w3.org/2000/svg">
<rect width="24" height="24" fill="white"/>
<path d="M3 11.0002H10C10.2652 11.0002 10.5196 10.8949 10.7071 10.7074C10.8946 10.5198 11 10.2655 11 10.0002V3.00024C11 2.73503 10.8946 2.48067 10.7071 2.29314C10.5196 2.1056 10.2652 2.00024 10 2.00024H3C2.73478 2.00024 2.48043 2.1056 2.29289 2.29314C2.10536 2.48067 2 2.73503 2 3.00024V10.0002C2 10.2655 2.10536 10.5198 2.29289 10.7074C2.48043 10.8949 2.73478 11.0002 3 11.0002ZM4 4.00024H9V9.00024H4V4.00024Z" fill="#3F51B5"/>
<path d="M14 11.0002H21C21.2652 11.0002 21.5196 10.8949 21.7071 10.7074C21.8946 10.5198 22 10.2655 22 10.0002V3.00024C22 2.73503 21.8946 2.48067 21.7071 2.29314C21.5196 2.1056 21.2652 2.00024 21 2.00024H14C13.7348 2.00024 13.4804 2.1056 13.2929 2.29314C13.1054 2.48067 13 2.73503 13 3.00024V10.0002C13 10.2655 13.1054 10.5198 13.2929 10.7074C13.4804 10.8949 13.7348 11.0002 14 11.0002ZM15 4.00024H20V9.00024H15V4.00024Z" fill="#3F51B5"/>
<path d="M3 21.9998H10C10.2652 21.9998 10.5196 21.8944 10.7071 21.7069C10.8946 21.5193 11 21.265 11 20.9998V13.9998C11 13.7345 10.8946 13.4802 10.7071 13.2926C10.5196 13.1051 10.2652 12.9998 10 12.9998H3C2.73478 12.9998 2.48043 13.1051 2.29289 13.2926C2.10536 13.4802 2 13.7345 2 13.9998V20.9998C2 21.265 2.10536 21.5193 2.29289 21.7069C2.48043 21.8944 2.73478 21.9998 3 21.9998ZM4 14.9998H9V19.9998H4V14.9998Z" fill="#3F51B5"/>
<path d="M14 21.9998H21C21.2652 21.9998 21.5196 21.8944 21.7071 21.7069C21.8946 21.5193 22 21.265 22 20.9998V13.9998C22 13.7345 21.8946 13.4802 21.7071 13.2926C21.5196 13.1051 21.2652 12.9998 21 12.9998H14C13.7348 12.9998 13.4804 13.1051 13.2929 13.2926C13.1054 13.4802 13 13.7345 13 13.9998V20.9998C13 21.265 13.1054 21.5193 13.2929 21.7069C13.4804 21.8944 13.7348 21.9998 14 21.9998ZM15 14.9998H20V19.9998H15V14.9998Z" fill="#3F51B5"/>
</svg>
