<svg width="278" height="279" viewBox="0 0 278 279" fill="none" xmlns="http://www.w3.org/2000/svg">
<g filter="url(#filter0_d_4312_7441)">
<path d="M55 112C55 92.2368 55 82.3552 57.2152 74.2579C63.0456 52.9456 79.6956 36.2956 101.008 30.4652C109.105 28.25 118.987 28.25 138.75 28.25V28.25C158.513 28.25 168.395 28.25 176.492 30.4652C197.804 36.2956 214.454 52.9456 220.285 74.2579C222.5 82.3552 222.5 92.2368 222.5 112V112C222.5 131.763 222.5 141.645 220.285 149.742C214.454 171.054 197.804 187.704 176.492 193.535C168.395 195.75 158.513 195.75 138.75 195.75V195.75C118.987 195.75 109.105 195.75 101.008 193.535C79.6956 187.704 63.0456 171.054 57.2152 149.742C55 141.645 55 131.763 55 112V112Z" fill="#3F51B5"/>
<path d="M138.75 192C118.74 192 109.486 191.966 101.997 189.918C81.9639 184.437 66.3128 168.786 60.8323 148.753C58.7835 141.264 58.75 132.01 58.75 112C58.75 91.9904 58.7835 82.7364 60.8323 75.2475C66.3128 55.2139 81.9639 39.5628 101.997 34.0823C109.486 32.0335 118.74 32 138.75 32C158.76 32 168.014 32.0335 175.503 34.0823C195.536 39.5628 211.187 55.2139 216.668 75.2475C218.716 82.7364 218.75 91.9904 218.75 112C218.75 132.01 218.716 141.264 216.668 148.753C211.187 168.786 195.536 184.437 175.503 189.918C168.014 191.966 158.76 192 138.75 192Z" stroke="white" stroke-opacity="0.3" stroke-width="7.5"/>
</g>
<path fill-rule="evenodd" clip-rule="evenodd" d="M152.711 130.784H173.624V93.0808H170.172V123.399C170.172 124.165 169.52 124.785 168.712 124.785C160.885 124.785 154.74 127.658 150.221 131.021C151.025 130.868 151.855 130.784 152.711 130.784ZM154.076 125.318L154.065 125.32L154.059 125.325C154.062 125.324 154.065 125.323 154.068 125.322C154.07 125.32 154.073 125.319 154.076 125.318ZM170.172 88.9253H175.813C177.022 88.9253 178 89.8552 178 91.0015V132.862C178 134.008 177.022 134.94 175.813 134.94H152.711C146.453 134.94 141.31 141.897 141.22 142.018L141.219 142.019C141.217 142.022 141.214 142.025 141.211 142.028C141.207 142.031 141.204 142.035 141.201 142.038C141.11 142.161 141.005 142.274 140.888 142.376C140.873 142.387 140.859 142.398 140.844 142.409C140.835 142.417 140.825 142.424 140.816 142.432C140.703 142.524 140.58 142.604 140.447 142.673C140.437 142.677 140.429 142.682 140.419 142.687L140.418 142.688C140.307 142.744 140.186 142.793 140.061 142.83C140.04 142.836 140.018 142.84 139.996 142.844C139.986 142.845 139.977 142.847 139.967 142.849C139.957 142.852 139.946 142.854 139.936 142.856C139.922 142.859 139.908 142.862 139.895 142.865C139.736 142.9 139.574 142.921 139.414 142.921C139.403 142.921 139.394 142.918 139.385 142.918C139.244 142.915 139.104 142.898 138.965 142.87C138.948 142.866 138.932 142.863 138.915 142.86C138.89 142.855 138.864 142.849 138.839 142.843C138.83 142.84 138.82 142.839 138.811 142.837C138.796 142.833 138.781 142.83 138.766 142.826C138.646 142.79 138.533 142.746 138.425 142.694C138.411 142.687 138.397 142.679 138.384 142.671C138.37 142.663 138.356 142.654 138.342 142.647C138.231 142.587 138.129 142.52 138.033 142.445C138.02 142.434 138.007 142.424 137.994 142.414C137.973 142.398 137.952 142.383 137.933 142.365C137.821 142.267 137.72 142.159 137.63 142.041C137.626 142.033 137.616 142.028 137.61 142.019C137.536 141.919 132.387 134.94 126.119 134.94H103.019C101.81 134.94 100.829 134.008 100.829 132.862V91.0015C100.829 89.8552 101.81 88.9253 103.019 88.9253H126.275C132.775 88.9253 137.119 92.6312 139.414 95.3142C139.704 94.9764 140.03 94.622 140.384 94.2614C142.26 91.4756 145.398 87.8385 150.197 84.9517C150.208 84.9452 150.219 84.9389 150.23 84.9325C150.242 84.9261 150.253 84.9198 150.264 84.9133C153.376 83.0521 157.194 81.5238 161.822 80.7373L161.922 80.7006L161.954 80.714C164.045 80.3664 166.28 80.1536 168.712 80.1536C169.52 80.1536 170.172 80.7739 170.172 81.5394V88.9253ZM113.147 104.923C115.041 103.071 117.61 102.031 120.289 102.031C122.967 102.031 125.536 103.071 127.43 104.923C129.324 106.774 130.388 109.285 130.388 111.903H126.601C125.931 111.903 125.289 112.163 124.815 112.626C124.342 113.089 124.076 113.716 124.076 114.371V120.541C124.076 121.195 124.342 121.823 124.815 122.286C125.289 122.749 125.931 123.009 126.601 123.009H130.388C131.058 123.009 131.7 122.749 132.173 122.286C132.647 121.823 132.913 121.195 132.913 120.541V111.903C132.913 105.088 127.261 99.5634 120.289 99.5634C113.316 99.5634 107.664 105.088 107.664 111.903V120.541C107.664 121.195 107.93 121.823 108.404 122.286C108.877 122.749 109.519 123.009 110.189 123.009H113.976C114.646 123.009 115.288 122.749 115.762 122.286C116.235 121.823 116.501 121.195 116.501 120.541V114.371C116.501 113.716 116.235 113.089 115.762 112.626C115.288 112.163 114.646 111.903 113.976 111.903H110.189C110.189 109.285 111.253 106.774 113.147 104.923ZM110.189 120.541V114.371H113.976V120.541H110.189ZM126.601 120.541V114.371H130.388V120.541H126.601Z" fill="white"/>
<defs>
<filter id="filter0_d_4312_7441" x="0" y="0.75" width="277.5" height="277.5" filterUnits="userSpaceOnUse" color-interpolation-filters="sRGB">
<feFlood flood-opacity="0" result="BackgroundImageFix"/>
<feColorMatrix in="SourceAlpha" type="matrix" values="0 0 0 0 0 0 0 0 0 0 0 0 0 0 0 0 0 0 127 0" result="hardAlpha"/>
<feOffset dy="27.5"/>
<feGaussianBlur stdDeviation="27.5"/>
<feComposite in2="hardAlpha" operator="out"/>
<feColorMatrix type="matrix" values="0 0 0 0 0.121569 0 0 0 0 0.121569 0 0 0 0 0.121569 0 0 0 0.4 0"/>
<feBlend mode="normal" in2="BackgroundImageFix" result="effect1_dropShadow_4312_7441"/>
<feBlend mode="normal" in="SourceGraphic" in2="effect1_dropShadow_4312_7441" result="shape"/>
</filter>
</defs>
</svg>
